<mxfile host="app.diagrams.net" agent="Mozilla/5.0 (X11; Linux x86_64) AppleWebKit/537.36 (KHTML, like Gecko) Chrome/109.0.0.0 Safari/537.36" version="24.7.7">
  <diagram name="Halaman-1" id="kDq22BcIavLCAf8mFKDK">
    <mxGraphModel dx="1114" dy="571" grid="1" gridSize="10" guides="1" tooltips="1" connect="1" arrows="1" fold="1" page="1" pageScale="1" pageWidth="827" pageHeight="1169" math="0" shadow="0">
      <root>
        <mxCell id="0" />
        <mxCell id="1" parent="0" />
        <mxCell id="YOasB6z1zLO-qiQz8oli-1" value="Guru" style="shape=umlActor;verticalLabelPosition=bottom;verticalAlign=top;html=1;outlineConnect=0;" vertex="1" parent="1">
          <mxGeometry x="100" y="330" width="90" height="140" as="geometry" />
        </mxCell>
        <mxCell id="YOasB6z1zLO-qiQz8oli-6" value="siswa&lt;div&gt;&lt;br&gt;&lt;/div&gt;" style="shape=umlActor;verticalLabelPosition=bottom;verticalAlign=top;html=1;outlineConnect=0;" vertex="1" parent="1">
          <mxGeometry x="630" y="330" width="90" height="140" as="geometry" />
        </mxCell>
        <mxCell id="YOasB6z1zLO-qiQz8oli-15" style="edgeStyle=orthogonalEdgeStyle;rounded=0;orthogonalLoop=1;jettySize=auto;html=1;exitX=0.5;exitY=1;exitDx=0;exitDy=0;" edge="1" parent="1">
          <mxGeometry relative="1" as="geometry">
            <mxPoint x="675" y="610" as="sourcePoint" />
            <mxPoint x="675" y="610" as="targetPoint" />
          </mxGeometry>
        </mxCell>
        <mxCell id="YOasB6z1zLO-qiQz8oli-16" value="" style="rounded=0;whiteSpace=wrap;html=1;direction=south;" vertex="1" parent="1">
          <mxGeometry x="300" y="240" width="220" height="370" as="geometry" />
        </mxCell>
        <mxCell id="YOasB6z1zLO-qiQz8oli-17" value="Login" style="rounded=0;whiteSpace=wrap;html=1;" vertex="1" parent="1">
          <mxGeometry x="350" y="280" width="120" height="50" as="geometry" />
        </mxCell>
        <mxCell id="YOasB6z1zLO-qiQz8oli-18" value="Masukan Pasword" style="rounded=0;whiteSpace=wrap;html=1;" vertex="1" parent="1">
          <mxGeometry x="350" y="360" width="120" height="50" as="geometry" />
        </mxCell>
        <mxCell id="YOasB6z1zLO-qiQz8oli-19" value="Memeriksa Poin" style="rounded=0;whiteSpace=wrap;html=1;" vertex="1" parent="1">
          <mxGeometry x="354" y="440" width="120" height="50" as="geometry" />
        </mxCell>
        <mxCell id="YOasB6z1zLO-qiQz8oli-21" value="Memberikan Poin" style="rounded=0;whiteSpace=wrap;html=1;" vertex="1" parent="1">
          <mxGeometry x="354" y="510" width="120" height="50" as="geometry" />
        </mxCell>
        <mxCell id="YOasB6z1zLO-qiQz8oli-24" value="" style="endArrow=none;html=1;rounded=0;" edge="1" parent="1">
          <mxGeometry width="50" height="50" relative="1" as="geometry">
            <mxPoint x="210" y="390" as="sourcePoint" />
            <mxPoint x="340" y="390" as="targetPoint" />
            <Array as="points" />
          </mxGeometry>
        </mxCell>
        <mxCell id="YOasB6z1zLO-qiQz8oli-26" value="" style="endArrow=none;html=1;rounded=0;entryX=0.162;entryY=0.818;entryDx=0;entryDy=0;entryPerimeter=0;" edge="1" parent="1" target="YOasB6z1zLO-qiQz8oli-16">
          <mxGeometry width="50" height="50" relative="1" as="geometry">
            <mxPoint x="200" y="360" as="sourcePoint" />
            <mxPoint x="440" y="430" as="targetPoint" />
            <Array as="points">
              <mxPoint x="240" y="300" />
            </Array>
          </mxGeometry>
        </mxCell>
        <mxCell id="YOasB6z1zLO-qiQz8oli-27" value="" style="endArrow=none;html=1;rounded=0;entryX=0.784;entryY=0.818;entryDx=0;entryDy=0;entryPerimeter=0;" edge="1" parent="1" target="YOasB6z1zLO-qiQz8oli-16">
          <mxGeometry width="50" height="50" relative="1" as="geometry">
            <mxPoint x="200" y="440" as="sourcePoint" />
            <mxPoint x="440" y="430" as="targetPoint" />
          </mxGeometry>
        </mxCell>
        <mxCell id="YOasB6z1zLO-qiQz8oli-28" value="" style="endArrow=none;html=1;rounded=0;" edge="1" parent="1">
          <mxGeometry width="50" height="50" relative="1" as="geometry">
            <mxPoint x="480" y="300" as="sourcePoint" />
            <mxPoint x="620" y="360" as="targetPoint" />
            <Array as="points">
              <mxPoint x="590" y="300" />
            </Array>
          </mxGeometry>
        </mxCell>
        <mxCell id="YOasB6z1zLO-qiQz8oli-29" value="" style="endArrow=none;html=1;rounded=0;" edge="1" parent="1">
          <mxGeometry width="50" height="50" relative="1" as="geometry">
            <mxPoint x="490" y="460" as="sourcePoint" />
            <mxPoint x="630" y="410" as="targetPoint" />
          </mxGeometry>
        </mxCell>
      </root>
    </mxGraphModel>
  </diagram>
</mxfile>
